<mxfile host="app.diagrams.net" modified="2024-06-12T08:51:34.904Z" agent="Mozilla/5.0 (Macintosh; Intel Mac OS X 10_15_7) AppleWebKit/605.1.15 (KHTML, like Gecko) Version/17.1 Safari/605.1.15" etag="iMbmynyClfUpRf7BROt8" version="24.5.3" type="github">
  <diagram name="Page-1" id="2YBvvXClWsGukQMizWep">
    <mxGraphModel dx="1845" dy="1639" grid="1" gridSize="10" guides="1" tooltips="1" connect="1" arrows="1" fold="1" page="1" pageScale="1" pageWidth="850" pageHeight="1100" math="0" shadow="0">
      <root>
        <mxCell id="0" />
        <mxCell id="1" parent="0" />
        <mxCell id="IGTpVywdScjhedYOJICQ-6" value="" style="endArrow=none;dashed=1;html=1;rounded=0;" parent="1" target="IGTpVywdScjhedYOJICQ-1" edge="1">
          <mxGeometry width="50" height="50" relative="1" as="geometry">
            <mxPoint x="-615" y="693" as="sourcePoint" />
            <mxPoint x="-600" y="123" as="targetPoint" />
          </mxGeometry>
        </mxCell>
        <mxCell id="IGTpVywdScjhedYOJICQ-5" value="" style="group" parent="1" vertex="1" connectable="0">
          <mxGeometry x="-90" y="-23" width="580" height="690" as="geometry" />
        </mxCell>
        <mxCell id="aM9ryv3xv72pqoxQDRHE-2" value="" style="html=1;points=[];perimeter=orthogonalPerimeter;outlineConnect=0;targetShapes=umlLifeline;portConstraint=eastwest;newEdgeStyle={&quot;edgeStyle&quot;:&quot;elbowEdgeStyle&quot;,&quot;elbow&quot;:&quot;vertical&quot;,&quot;curved&quot;:0,&quot;rounded&quot;:0};" parent="IGTpVywdScjhedYOJICQ-5" vertex="1">
          <mxGeometry x="-530" y="133" width="10" height="530" as="geometry" />
        </mxCell>
        <mxCell id="aM9ryv3xv72pqoxQDRHE-7" value="&lt;font style=&quot;font-size: 10px;&quot;&gt;1 LogIn as Agency&lt;/font&gt;" style="html=1;verticalAlign=bottom;endArrow=block;edgeStyle=elbowEdgeStyle;elbow=vertical;curved=0;rounded=0;" parent="IGTpVywdScjhedYOJICQ-5" target="aM9ryv3xv72pqoxQDRHE-6" edge="1">
          <mxGeometry x="-0.0016" relative="1" as="geometry">
            <mxPoint x="-520" y="163" as="sourcePoint" />
            <Array as="points">
              <mxPoint x="-290" y="163" />
            </Array>
            <mxPoint as="offset" />
          </mxGeometry>
        </mxCell>
        <mxCell id="IGTpVywdScjhedYOJICQ-1" value="&lt;div&gt;Agency&lt;/div&gt;&lt;div&gt;&lt;br&gt;&lt;/div&gt;" style="shape=umlActor;verticalLabelPosition=bottom;verticalAlign=top;html=1;outlineConnect=0;" parent="IGTpVywdScjhedYOJICQ-5" vertex="1">
          <mxGeometry x="-540" y="63" width="30" height="66.43" as="geometry" />
        </mxCell>
        <mxCell id="IGTpVywdScjhedYOJICQ-22" value="Scenario 1 : Identify areas of good air quality using a sensor around air cleaners" style="rounded=0;whiteSpace=wrap;html=1;" parent="IGTpVywdScjhedYOJICQ-5" vertex="1">
          <mxGeometry x="-480" y="43" width="220" height="60" as="geometry" />
        </mxCell>
        <mxCell id="aM9ryv3xv72pqoxQDRHE-5" value="&lt;div&gt;:Controler&lt;/div&gt;" style="shape=umlLifeline;perimeter=lifelinePerimeter;whiteSpace=wrap;html=1;container=0;dropTarget=0;collapsible=0;recursiveResize=0;outlineConnect=0;portConstraint=eastwest;newEdgeStyle={&quot;edgeStyle&quot;:&quot;elbowEdgeStyle&quot;,&quot;elbow&quot;:&quot;vertical&quot;,&quot;curved&quot;:0,&quot;rounded&quot;:0};" parent="IGTpVywdScjhedYOJICQ-5" vertex="1">
          <mxGeometry x="-250" y="83" width="100" height="630" as="geometry" />
        </mxCell>
        <mxCell id="aM9ryv3xv72pqoxQDRHE-6" value="" style="html=1;points=[];perimeter=orthogonalPerimeter;outlineConnect=0;targetShapes=umlLifeline;portConstraint=eastwest;newEdgeStyle={&quot;edgeStyle&quot;:&quot;elbowEdgeStyle&quot;,&quot;elbow&quot;:&quot;vertical&quot;,&quot;curved&quot;:0,&quot;rounded&quot;:0};" parent="aM9ryv3xv72pqoxQDRHE-5" vertex="1">
          <mxGeometry x="45" y="80" width="10" height="480" as="geometry" />
        </mxCell>
        <mxCell id="IGTpVywdScjhedYOJICQ-28" value="&lt;div&gt;:Dataset&lt;/div&gt;" style="shape=umlLifeline;perimeter=lifelinePerimeter;whiteSpace=wrap;html=1;container=0;dropTarget=0;collapsible=0;recursiveResize=0;outlineConnect=0;portConstraint=eastwest;newEdgeStyle={&quot;edgeStyle&quot;:&quot;elbowEdgeStyle&quot;,&quot;elbow&quot;:&quot;vertical&quot;,&quot;curved&quot;:0,&quot;rounded&quot;:0};" parent="IGTpVywdScjhedYOJICQ-5" vertex="1">
          <mxGeometry x="-60" y="83" width="100" height="620" as="geometry" />
        </mxCell>
        <mxCell id="IGTpVywdScjhedYOJICQ-29" value="" style="html=1;points=[];perimeter=orthogonalPerimeter;outlineConnect=0;targetShapes=umlLifeline;portConstraint=eastwest;newEdgeStyle={&quot;edgeStyle&quot;:&quot;elbowEdgeStyle&quot;,&quot;elbow&quot;:&quot;vertical&quot;,&quot;curved&quot;:0,&quot;rounded&quot;:0};" parent="IGTpVywdScjhedYOJICQ-5" vertex="1">
          <mxGeometry x="-15" y="343" width="10" height="30" as="geometry" />
        </mxCell>
        <mxCell id="IGTpVywdScjhedYOJICQ-8" style="edgeStyle=elbowEdgeStyle;rounded=0;orthogonalLoop=1;jettySize=auto;html=1;elbow=vertical;curved=0;" parent="IGTpVywdScjhedYOJICQ-5" edge="1">
          <mxGeometry relative="1" as="geometry">
            <mxPoint x="-520" y="253.00043478260875" as="sourcePoint" />
            <mxPoint x="-205" y="253.00043478260875" as="targetPoint" />
          </mxGeometry>
        </mxCell>
        <mxCell id="IGTpVywdScjhedYOJICQ-9" value="&lt;font style=&quot;font-size: 10px;&quot;&gt;Click on Analyze air quality around air cleaner&lt;/font&gt;" style="edgeLabel;html=1;align=center;verticalAlign=middle;resizable=0;points=[];" parent="IGTpVywdScjhedYOJICQ-8" vertex="1" connectable="0">
          <mxGeometry x="0.154" y="2" relative="1" as="geometry">
            <mxPoint x="-22" y="-8" as="offset" />
          </mxGeometry>
        </mxCell>
        <mxCell id="IGTpVywdScjhedYOJICQ-14" style="edgeStyle=elbowEdgeStyle;rounded=0;orthogonalLoop=1;jettySize=auto;html=1;elbow=vertical;curved=0;" parent="IGTpVywdScjhedYOJICQ-5" edge="1">
          <mxGeometry relative="1" as="geometry">
            <mxPoint x="-205" y="319" as="targetPoint" />
            <Array as="points">
              <mxPoint x="-310" y="319" />
              <mxPoint x="-360" y="339" />
              <mxPoint x="-310" y="319" />
              <mxPoint x="-360" y="319" />
            </Array>
            <mxPoint x="-520" y="319" as="sourcePoint" />
          </mxGeometry>
        </mxCell>
        <mxCell id="IGTpVywdScjhedYOJICQ-15" value="&lt;font style=&quot;font-size: 10px;&quot;&gt;Enter area and period to analyze (AirCleanerID, periodOfTime)&lt;br&gt;&lt;/font&gt;" style="edgeLabel;html=1;align=center;verticalAlign=middle;resizable=0;points=[];" parent="IGTpVywdScjhedYOJICQ-14" vertex="1" connectable="0">
          <mxGeometry x="0.0835" relative="1" as="geometry">
            <mxPoint x="-13" y="-10" as="offset" />
          </mxGeometry>
        </mxCell>
        <mxCell id="IGTpVywdScjhedYOJICQ-23" style="edgeStyle=elbowEdgeStyle;rounded=0;orthogonalLoop=1;jettySize=auto;html=1;elbow=vertical;curved=0;" parent="IGTpVywdScjhedYOJICQ-5" edge="1">
          <mxGeometry relative="1" as="geometry">
            <mxPoint x="-520" y="563.43" as="sourcePoint" />
            <mxPoint x="-205" y="563.43" as="targetPoint" />
            <Array as="points">
              <mxPoint x="-310" y="563.43" />
              <mxPoint x="-330" y="533.4300000000001" />
            </Array>
          </mxGeometry>
        </mxCell>
        <mxCell id="IGTpVywdScjhedYOJICQ-37" value="&lt;font style=&quot;font-size: 10px;&quot;&gt;Enter sensor (SensorID)&lt;/font&gt;" style="edgeLabel;html=1;align=center;verticalAlign=middle;resizable=0;points=[];" parent="IGTpVywdScjhedYOJICQ-23" vertex="1" connectable="0">
          <mxGeometry x="0.0186" y="1" relative="1" as="geometry">
            <mxPoint y="-7" as="offset" />
          </mxGeometry>
        </mxCell>
        <mxCell id="IGTpVywdScjhedYOJICQ-30" style="edgeStyle=elbowEdgeStyle;rounded=0;orthogonalLoop=1;jettySize=auto;html=1;elbow=vertical;curved=0;" parent="IGTpVywdScjhedYOJICQ-5" edge="1">
          <mxGeometry relative="1" as="geometry">
            <mxPoint x="-194.99999999999977" y="343" as="sourcePoint" />
            <mxPoint x="-15" y="343" as="targetPoint" />
          </mxGeometry>
        </mxCell>
        <mxCell id="IGTpVywdScjhedYOJICQ-31" value="&lt;font style=&quot;font-size: 10px;&quot;&gt;Access data from sensors around AirCleaner&lt;/font&gt;" style="edgeLabel;html=1;align=center;verticalAlign=middle;resizable=0;points=[];" parent="IGTpVywdScjhedYOJICQ-30" vertex="1" connectable="0">
          <mxGeometry x="-0.2673" relative="1" as="geometry">
            <mxPoint x="28" y="-20" as="offset" />
          </mxGeometry>
        </mxCell>
        <mxCell id="IGTpVywdScjhedYOJICQ-32" style="edgeStyle=elbowEdgeStyle;rounded=0;orthogonalLoop=1;jettySize=auto;html=1;elbow=vertical;curved=0;dashed=1;" parent="IGTpVywdScjhedYOJICQ-5" edge="1">
          <mxGeometry relative="1" as="geometry">
            <mxPoint x="-15" y="372.9971428571429" as="sourcePoint" />
            <mxPoint x="-195" y="372.9971428571429" as="targetPoint" />
          </mxGeometry>
        </mxCell>
        <mxCell id="IGTpVywdScjhedYOJICQ-33" value="&lt;font style=&quot;font-size: 10px;&quot;&gt;Return data&lt;/font&gt;" style="edgeLabel;html=1;align=center;verticalAlign=middle;resizable=0;points=[];" parent="IGTpVywdScjhedYOJICQ-32" vertex="1" connectable="0">
          <mxGeometry x="-0.181" y="2" relative="1" as="geometry">
            <mxPoint x="-11" y="-12" as="offset" />
          </mxGeometry>
        </mxCell>
        <mxCell id="IGTpVywdScjhedYOJICQ-35" style="edgeStyle=elbowEdgeStyle;rounded=0;orthogonalLoop=1;jettySize=auto;html=1;elbow=vertical;curved=0;" parent="IGTpVywdScjhedYOJICQ-5" edge="1">
          <mxGeometry relative="1" as="geometry">
            <mxPoint x="-520" y="489.00043478260875" as="sourcePoint" />
            <mxPoint x="-205" y="489.00043478260875" as="targetPoint" />
          </mxGeometry>
        </mxCell>
        <mxCell id="IGTpVywdScjhedYOJICQ-36" value="&lt;font style=&quot;font-size: 10px;&quot;&gt;Click on Identify areas with similar air qualities&lt;br&gt;&lt;/font&gt;" style="edgeLabel;html=1;align=center;verticalAlign=middle;resizable=0;points=[];" parent="IGTpVywdScjhedYOJICQ-35" vertex="1" connectable="0">
          <mxGeometry x="0.154" y="2" relative="1" as="geometry">
            <mxPoint x="-22" y="-8" as="offset" />
          </mxGeometry>
        </mxCell>
        <mxCell id="IGTpVywdScjhedYOJICQ-57" value="&lt;font style=&quot;font-size: 9px;&quot;&gt;Loop while air quality not good enough&lt;/font&gt;" style="rounded=0;whiteSpace=wrap;html=1;" parent="IGTpVywdScjhedYOJICQ-5" vertex="1">
          <mxGeometry x="-640" y="223" width="110" height="30" as="geometry" />
        </mxCell>
        <mxCell id="IGTpVywdScjhedYOJICQ-40" value="" style="html=1;points=[];perimeter=orthogonalPerimeter;outlineConnect=0;targetShapes=umlLifeline;portConstraint=eastwest;newEdgeStyle={&quot;edgeStyle&quot;:&quot;elbowEdgeStyle&quot;,&quot;elbow&quot;:&quot;vertical&quot;,&quot;curved&quot;:0,&quot;rounded&quot;:0};" parent="IGTpVywdScjhedYOJICQ-5" vertex="1">
          <mxGeometry x="-15" y="584.4300000000001" width="10" height="30" as="geometry" />
        </mxCell>
        <mxCell id="IGTpVywdScjhedYOJICQ-45" style="edgeStyle=elbowEdgeStyle;rounded=0;orthogonalLoop=1;jettySize=auto;html=1;elbow=vertical;curved=0;" parent="IGTpVywdScjhedYOJICQ-5" edge="1">
          <mxGeometry relative="1" as="geometry">
            <mxPoint x="-195" y="584.4328571428571" as="sourcePoint" />
            <mxPoint x="-15" y="584.4328571428571" as="targetPoint" />
          </mxGeometry>
        </mxCell>
        <mxCell id="IGTpVywdScjhedYOJICQ-46" value="&lt;div&gt;&lt;font style=&quot;font-size: 10px;&quot;&gt;Access data from similar sensors&lt;/font&gt;&lt;/div&gt;" style="edgeLabel;html=1;align=center;verticalAlign=middle;resizable=0;points=[];" parent="IGTpVywdScjhedYOJICQ-45" vertex="1" connectable="0">
          <mxGeometry x="-0.2673" relative="1" as="geometry">
            <mxPoint x="28" y="-20" as="offset" />
          </mxGeometry>
        </mxCell>
        <mxCell id="IGTpVywdScjhedYOJICQ-47" style="edgeStyle=elbowEdgeStyle;rounded=0;orthogonalLoop=1;jettySize=auto;html=1;elbow=vertical;curved=0;dashed=1;" parent="IGTpVywdScjhedYOJICQ-5" source="IGTpVywdScjhedYOJICQ-40" edge="1">
          <mxGeometry relative="1" as="geometry">
            <mxPoint x="-25" y="614.4657142857143" as="sourcePoint" />
            <mxPoint x="-195" y="614.4300000000001" as="targetPoint" />
            <Array as="points">
              <mxPoint x="-140" y="614.4300000000001" />
            </Array>
          </mxGeometry>
        </mxCell>
        <mxCell id="IGTpVywdScjhedYOJICQ-48" value="&lt;font style=&quot;font-size: 10px;&quot;&gt;Return data&lt;/font&gt;" style="edgeLabel;html=1;align=center;verticalAlign=middle;resizable=0;points=[];" parent="IGTpVywdScjhedYOJICQ-47" vertex="1" connectable="0">
          <mxGeometry x="-0.181" y="2" relative="1" as="geometry">
            <mxPoint x="-11" y="-12" as="offset" />
          </mxGeometry>
        </mxCell>
        <mxCell id="MR5gXrPEWaGG3n3_YcXf-1" value="" style="html=1;verticalAlign=bottom;endArrow=open;dashed=1;endSize=8;curved=0;rounded=0;" parent="IGTpVywdScjhedYOJICQ-5" edge="1">
          <mxGeometry relative="1" as="geometry">
            <mxPoint x="-205" y="192" as="sourcePoint" />
            <mxPoint x="-520" y="192" as="targetPoint" />
          </mxGeometry>
        </mxCell>
        <mxCell id="7rz7RjUByKyXcCNpzr0i-1" value="&lt;span style=&quot;font-size: 10px;&quot;&gt;Display Agency Menu&lt;/span&gt;" style="edgeLabel;html=1;align=center;verticalAlign=middle;resizable=0;points=[];" vertex="1" connectable="0" parent="MR5gXrPEWaGG3n3_YcXf-1">
          <mxGeometry x="-0.0984" y="4" relative="1" as="geometry">
            <mxPoint x="-13" y="-16" as="offset" />
          </mxGeometry>
        </mxCell>
        <mxCell id="MR5gXrPEWaGG3n3_YcXf-10" value="" style="html=1;verticalAlign=bottom;endArrow=open;dashed=1;endSize=8;curved=0;rounded=0;" parent="IGTpVywdScjhedYOJICQ-5" edge="1">
          <mxGeometry relative="1" as="geometry">
            <mxPoint x="-205" y="280" as="sourcePoint" />
            <mxPoint x="-520" y="280" as="targetPoint" />
          </mxGeometry>
        </mxCell>
        <mxCell id="7rz7RjUByKyXcCNpzr0i-2" value="&lt;span style=&quot;font-size: 10px;&quot;&gt;Display request of information&lt;/span&gt;" style="edgeLabel;html=1;align=center;verticalAlign=middle;resizable=0;points=[];" vertex="1" connectable="0" parent="MR5gXrPEWaGG3n3_YcXf-10">
          <mxGeometry x="-0.3841" y="-1" relative="1" as="geometry">
            <mxPoint x="-58" y="-10" as="offset" />
          </mxGeometry>
        </mxCell>
        <mxCell id="MR5gXrPEWaGG3n3_YcXf-17" value="" style="html=1;verticalAlign=bottom;endArrow=open;dashed=1;endSize=8;curved=0;rounded=0;" parent="IGTpVywdScjhedYOJICQ-5" edge="1">
          <mxGeometry relative="1" as="geometry">
            <mxPoint x="-205" y="463" as="sourcePoint" />
            <mxPoint x="-520" y="463" as="targetPoint" />
          </mxGeometry>
        </mxCell>
        <mxCell id="7rz7RjUByKyXcCNpzr0i-5" value="&lt;span style=&quot;font-size: 10px;&quot;&gt;Display Agency Menu&lt;/span&gt;" style="edgeLabel;html=1;align=center;verticalAlign=middle;resizable=0;points=[];" vertex="1" connectable="0" parent="MR5gXrPEWaGG3n3_YcXf-17">
          <mxGeometry x="0.1214" y="1" relative="1" as="geometry">
            <mxPoint x="12" y="-11" as="offset" />
          </mxGeometry>
        </mxCell>
        <mxCell id="MR5gXrPEWaGG3n3_YcXf-18" value="" style="html=1;verticalAlign=bottom;endArrow=open;dashed=1;endSize=8;curved=0;rounded=0;" parent="IGTpVywdScjhedYOJICQ-5" edge="1">
          <mxGeometry relative="1" as="geometry">
            <mxPoint x="-205" y="524" as="sourcePoint" />
            <mxPoint x="-520" y="524" as="targetPoint" />
          </mxGeometry>
        </mxCell>
        <mxCell id="7rz7RjUByKyXcCNpzr0i-6" value="&lt;span style=&quot;font-size: 10px;&quot;&gt;Display request of information&lt;/span&gt;" style="edgeLabel;html=1;align=center;verticalAlign=middle;resizable=0;points=[];" vertex="1" connectable="0" parent="MR5gXrPEWaGG3n3_YcXf-18">
          <mxGeometry x="-0.1238" y="-1" relative="1" as="geometry">
            <mxPoint x="-27" y="-9" as="offset" />
          </mxGeometry>
        </mxCell>
        <mxCell id="IGTpVywdScjhedYOJICQ-58" value=":Controler" style="shape=umlLifeline;perimeter=lifelinePerimeter;whiteSpace=wrap;html=1;container=0;dropTarget=0;collapsible=0;recursiveResize=0;outlineConnect=0;portConstraint=eastwest;newEdgeStyle={&quot;edgeStyle&quot;:&quot;elbowEdgeStyle&quot;,&quot;elbow&quot;:&quot;vertical&quot;,&quot;curved&quot;:0,&quot;rounded&quot;:0};" parent="1" vertex="1">
          <mxGeometry x="-380" y="1210" width="100" height="580" as="geometry" />
        </mxCell>
        <mxCell id="IGTpVywdScjhedYOJICQ-59" value="" style="html=1;points=[];perimeter=orthogonalPerimeter;outlineConnect=0;targetShapes=umlLifeline;portConstraint=eastwest;newEdgeStyle={&quot;edgeStyle&quot;:&quot;elbowEdgeStyle&quot;,&quot;elbow&quot;:&quot;vertical&quot;,&quot;curved&quot;:0,&quot;rounded&quot;:0};" parent="IGTpVywdScjhedYOJICQ-58" vertex="1">
          <mxGeometry x="45" y="80" width="10" height="400" as="geometry" />
        </mxCell>
        <mxCell id="IGTpVywdScjhedYOJICQ-60" value="&lt;font style=&quot;font-size: 10px;&quot;&gt;LogIn as Agency&lt;/font&gt;" style="html=1;verticalAlign=bottom;endArrow=block;edgeStyle=elbowEdgeStyle;elbow=vertical;curved=0;rounded=0;" parent="1" source="IGTpVywdScjhedYOJICQ-65" target="IGTpVywdScjhedYOJICQ-59" edge="1">
          <mxGeometry relative="1" as="geometry">
            <mxPoint x="-405" y="1300" as="sourcePoint" />
            <Array as="points">
              <mxPoint x="-420" y="1290" />
            </Array>
          </mxGeometry>
        </mxCell>
        <mxCell id="IGTpVywdScjhedYOJICQ-62" value="" style="endArrow=none;dashed=1;html=1;rounded=0;" parent="1" target="IGTpVywdScjhedYOJICQ-64" edge="1">
          <mxGeometry width="50" height="50" relative="1" as="geometry">
            <mxPoint x="-655" y="1790" as="sourcePoint" />
            <mxPoint x="-660" y="1270" as="targetPoint" />
          </mxGeometry>
        </mxCell>
        <mxCell id="IGTpVywdScjhedYOJICQ-63" value="" style="group" parent="1" vertex="1" connectable="0">
          <mxGeometry x="-110" y="1100" width="880" height="760" as="geometry" />
        </mxCell>
        <mxCell id="IGTpVywdScjhedYOJICQ-65" value="" style="html=1;points=[];perimeter=orthogonalPerimeter;outlineConnect=0;targetShapes=umlLifeline;portConstraint=eastwest;newEdgeStyle={&quot;edgeStyle&quot;:&quot;elbowEdgeStyle&quot;,&quot;elbow&quot;:&quot;vertical&quot;,&quot;curved&quot;:0,&quot;rounded&quot;:0};" parent="IGTpVywdScjhedYOJICQ-63" vertex="1">
          <mxGeometry x="-550" y="190" width="10" height="460" as="geometry" />
        </mxCell>
        <mxCell id="IGTpVywdScjhedYOJICQ-87" value="&lt;font style=&quot;font-size: 10px;&quot;&gt;Display Agency Menu&lt;/font&gt;" style="html=1;verticalAlign=bottom;endArrow=block;edgeStyle=elbowEdgeStyle;elbow=vertical;curved=0;rounded=0;" parent="IGTpVywdScjhedYOJICQ-63" edge="1">
          <mxGeometry relative="1" as="geometry">
            <mxPoint x="-225" y="590" as="sourcePoint" />
            <Array as="points">
              <mxPoint x="-430" y="590" />
              <mxPoint x="-300" y="610" />
            </Array>
            <mxPoint x="-540" y="590" as="targetPoint" />
          </mxGeometry>
        </mxCell>
        <mxCell id="IGTpVywdScjhedYOJICQ-95" style="edgeStyle=elbowEdgeStyle;rounded=0;orthogonalLoop=1;jettySize=auto;html=1;elbow=vertical;curved=0;" parent="IGTpVywdScjhedYOJICQ-63" edge="1">
          <mxGeometry relative="1" as="geometry">
            <mxPoint x="-225" y="520.0030434782609" as="sourcePoint" />
            <mxPoint x="-540" y="520.0030434782609" as="targetPoint" />
          </mxGeometry>
        </mxCell>
        <mxCell id="IGTpVywdScjhedYOJICQ-96" value="&lt;font style=&quot;font-size: 10px;&quot;&gt;Ask for reliability of the user&lt;/font&gt;" style="edgeLabel;html=1;align=center;verticalAlign=middle;resizable=0;points=[];" parent="IGTpVywdScjhedYOJICQ-95" vertex="1" connectable="0">
          <mxGeometry x="-0.1127" y="-2" relative="1" as="geometry">
            <mxPoint x="-15" y="-8" as="offset" />
          </mxGeometry>
        </mxCell>
        <mxCell id="IGTpVywdScjhedYOJICQ-85" style="edgeStyle=elbowEdgeStyle;rounded=0;orthogonalLoop=1;jettySize=auto;html=1;elbow=vertical;curved=0;dashed=1;" parent="IGTpVywdScjhedYOJICQ-63" edge="1">
          <mxGeometry relative="1" as="geometry">
            <mxPoint x="-30" y="459.9971428571429" as="sourcePoint" />
            <mxPoint x="-215" y="460.16666666666697" as="targetPoint" />
          </mxGeometry>
        </mxCell>
        <mxCell id="IGTpVywdScjhedYOJICQ-86" value="&lt;font style=&quot;font-size: 10px;&quot;&gt;Return data&lt;/font&gt;" style="edgeLabel;html=1;align=center;verticalAlign=middle;resizable=0;points=[];" parent="IGTpVywdScjhedYOJICQ-85" vertex="1" connectable="0">
          <mxGeometry x="-0.181" y="2" relative="1" as="geometry">
            <mxPoint x="-11" y="-12" as="offset" />
          </mxGeometry>
        </mxCell>
        <mxCell id="IGTpVywdScjhedYOJICQ-146" value="&lt;div&gt;:Controler&lt;/div&gt;" style="shape=umlLifeline;perimeter=lifelinePerimeter;whiteSpace=wrap;html=1;container=0;dropTarget=0;collapsible=0;recursiveResize=0;outlineConnect=0;portConstraint=eastwest;newEdgeStyle={&quot;edgeStyle&quot;:&quot;elbowEdgeStyle&quot;,&quot;elbow&quot;:&quot;vertical&quot;,&quot;curved&quot;:0,&quot;rounded&quot;:0};" parent="IGTpVywdScjhedYOJICQ-63" vertex="1">
          <mxGeometry x="580" y="310" width="100" height="450" as="geometry" />
        </mxCell>
        <mxCell id="IGTpVywdScjhedYOJICQ-147" value="" style="html=1;points=[];perimeter=orthogonalPerimeter;outlineConnect=0;targetShapes=umlLifeline;portConstraint=eastwest;newEdgeStyle={&quot;edgeStyle&quot;:&quot;elbowEdgeStyle&quot;,&quot;elbow&quot;:&quot;vertical&quot;,&quot;curved&quot;:0,&quot;rounded&quot;:0};" parent="IGTpVywdScjhedYOJICQ-146" vertex="1">
          <mxGeometry x="45" y="80" width="10" height="310" as="geometry" />
        </mxCell>
        <mxCell id="IGTpVywdScjhedYOJICQ-148" value="&lt;font style=&quot;font-size: 10px;&quot;&gt;LogIn as Provider&lt;br&gt;&lt;/font&gt;" style="html=1;verticalAlign=bottom;endArrow=block;edgeStyle=elbowEdgeStyle;elbow=vertical;curved=0;rounded=0;" parent="IGTpVywdScjhedYOJICQ-63" source="IGTpVywdScjhedYOJICQ-153" target="IGTpVywdScjhedYOJICQ-147" edge="1">
          <mxGeometry relative="1" as="geometry">
            <mxPoint x="555" y="400" as="sourcePoint" />
            <Array as="points">
              <mxPoint x="540" y="390" />
            </Array>
          </mxGeometry>
        </mxCell>
        <mxCell id="IGTpVywdScjhedYOJICQ-150" value="" style="endArrow=none;dashed=1;html=1;rounded=0;" parent="IGTpVywdScjhedYOJICQ-63" target="IGTpVywdScjhedYOJICQ-152" edge="1">
          <mxGeometry width="50" height="50" relative="1" as="geometry">
            <mxPoint x="305" y="760" as="sourcePoint" />
            <mxPoint x="300" y="370" as="targetPoint" />
          </mxGeometry>
        </mxCell>
        <mxCell id="IGTpVywdScjhedYOJICQ-152" value="&lt;div&gt;Provider&lt;/div&gt;&lt;div&gt;&lt;br&gt;&lt;/div&gt;" style="shape=umlActor;verticalLabelPosition=bottom;verticalAlign=top;html=1;outlineConnect=0;" parent="IGTpVywdScjhedYOJICQ-63" vertex="1">
          <mxGeometry x="290" y="280" width="30" height="66.43" as="geometry" />
        </mxCell>
        <mxCell id="IGTpVywdScjhedYOJICQ-153" value="" style="html=1;points=[];perimeter=orthogonalPerimeter;outlineConnect=0;targetShapes=umlLifeline;portConstraint=eastwest;newEdgeStyle={&quot;edgeStyle&quot;:&quot;elbowEdgeStyle&quot;,&quot;elbow&quot;:&quot;vertical&quot;,&quot;curved&quot;:0,&quot;rounded&quot;:0};" parent="IGTpVywdScjhedYOJICQ-63" vertex="1">
          <mxGeometry x="300" y="390" width="10" height="330" as="geometry" />
        </mxCell>
        <mxCell id="IGTpVywdScjhedYOJICQ-173" style="edgeStyle=elbowEdgeStyle;rounded=0;orthogonalLoop=1;jettySize=auto;html=1;elbow=vertical;curved=0;" parent="IGTpVywdScjhedYOJICQ-63" edge="1">
          <mxGeometry relative="1" as="geometry">
            <mxPoint x="310" y="490.00043478260886" as="sourcePoint" />
            <mxPoint x="625" y="490.00043478260886" as="targetPoint" />
          </mxGeometry>
        </mxCell>
        <mxCell id="IGTpVywdScjhedYOJICQ-174" value="&lt;font style=&quot;font-size: 10px;&quot;&gt;Click on Analyze air quality around air cleaner&lt;br&gt;&lt;/font&gt;" style="edgeLabel;html=1;align=center;verticalAlign=middle;resizable=0;points=[];" parent="IGTpVywdScjhedYOJICQ-173" vertex="1" connectable="0">
          <mxGeometry x="0.154" y="2" relative="1" as="geometry">
            <mxPoint x="-22" y="-8" as="offset" />
          </mxGeometry>
        </mxCell>
        <mxCell id="IGTpVywdScjhedYOJICQ-175" style="edgeStyle=elbowEdgeStyle;rounded=0;orthogonalLoop=1;jettySize=auto;html=1;elbow=vertical;curved=0;" parent="IGTpVywdScjhedYOJICQ-63" edge="1">
          <mxGeometry relative="1" as="geometry">
            <mxPoint x="625" y="590.0000000000005" as="targetPoint" />
            <Array as="points">
              <mxPoint x="520" y="590" />
              <mxPoint x="470" y="610" />
              <mxPoint x="520" y="590" />
              <mxPoint x="470" y="590" />
            </Array>
            <mxPoint x="310" y="590.0000000000005" as="sourcePoint" />
          </mxGeometry>
        </mxCell>
        <mxCell id="IGTpVywdScjhedYOJICQ-176" value="&lt;font style=&quot;font-size: 10px;&quot;&gt;Enter air cleaner to check (AirCleanerID, period of time)&lt;br&gt;&lt;/font&gt;" style="edgeLabel;html=1;align=center;verticalAlign=middle;resizable=0;points=[];" parent="IGTpVywdScjhedYOJICQ-175" vertex="1" connectable="0">
          <mxGeometry x="0.0835" relative="1" as="geometry">
            <mxPoint x="-13" y="-10" as="offset" />
          </mxGeometry>
        </mxCell>
        <mxCell id="IGTpVywdScjhedYOJICQ-179" value="" style="html=1;points=[];perimeter=orthogonalPerimeter;outlineConnect=0;targetShapes=umlLifeline;portConstraint=eastwest;newEdgeStyle={&quot;edgeStyle&quot;:&quot;elbowEdgeStyle&quot;,&quot;elbow&quot;:&quot;vertical&quot;,&quot;curved&quot;:0,&quot;rounded&quot;:0};" parent="IGTpVywdScjhedYOJICQ-63" vertex="1">
          <mxGeometry x="820" y="630" width="10" height="30" as="geometry" />
        </mxCell>
        <mxCell id="IGTpVywdScjhedYOJICQ-180" style="edgeStyle=elbowEdgeStyle;rounded=0;orthogonalLoop=1;jettySize=auto;html=1;elbow=vertical;curved=0;" parent="IGTpVywdScjhedYOJICQ-63" target="IGTpVywdScjhedYOJICQ-179" edge="1">
          <mxGeometry relative="1" as="geometry">
            <mxPoint x="635.0000000000002" y="630" as="sourcePoint" />
            <mxPoint x="815" y="630" as="targetPoint" />
          </mxGeometry>
        </mxCell>
        <mxCell id="IGTpVywdScjhedYOJICQ-181" value="&lt;font style=&quot;font-size: 10px;&quot;&gt;Access data from sensors around selected air cleaner&lt;br&gt;&lt;/font&gt;" style="edgeLabel;html=1;align=center;verticalAlign=middle;resizable=0;points=[];" parent="IGTpVywdScjhedYOJICQ-180" vertex="1" connectable="0">
          <mxGeometry x="-0.2673" relative="1" as="geometry">
            <mxPoint x="28" y="-20" as="offset" />
          </mxGeometry>
        </mxCell>
        <mxCell id="IGTpVywdScjhedYOJICQ-182" style="edgeStyle=elbowEdgeStyle;rounded=0;orthogonalLoop=1;jettySize=auto;html=1;elbow=vertical;curved=0;dashed=1;" parent="IGTpVywdScjhedYOJICQ-63" source="IGTpVywdScjhedYOJICQ-179" edge="1">
          <mxGeometry relative="1" as="geometry">
            <mxPoint x="815" y="659.997142857143" as="sourcePoint" />
            <mxPoint x="635" y="659.997142857143" as="targetPoint" />
          </mxGeometry>
        </mxCell>
        <mxCell id="IGTpVywdScjhedYOJICQ-183" value="&lt;font style=&quot;font-size: 10px;&quot;&gt;Return data&lt;/font&gt;" style="edgeLabel;html=1;align=center;verticalAlign=middle;resizable=0;points=[];" parent="IGTpVywdScjhedYOJICQ-182" vertex="1" connectable="0">
          <mxGeometry x="-0.181" y="2" relative="1" as="geometry">
            <mxPoint x="-11" y="-12" as="offset" />
          </mxGeometry>
        </mxCell>
        <mxCell id="MR5gXrPEWaGG3n3_YcXf-34" value="" style="html=1;verticalAlign=bottom;endArrow=open;dashed=1;endSize=8;curved=0;rounded=0;" parent="IGTpVywdScjhedYOJICQ-63" edge="1">
          <mxGeometry relative="1" as="geometry">
            <mxPoint x="625" y="423" as="sourcePoint" />
            <mxPoint x="310" y="423" as="targetPoint" />
          </mxGeometry>
        </mxCell>
        <mxCell id="7rz7RjUByKyXcCNpzr0i-13" value="&lt;span style=&quot;font-size: 10px;&quot;&gt;Display Provider Menu&lt;/span&gt;" style="edgeLabel;html=1;align=center;verticalAlign=middle;resizable=0;points=[];" vertex="1" connectable="0" parent="MR5gXrPEWaGG3n3_YcXf-34">
          <mxGeometry x="-0.3862" y="-2" relative="1" as="geometry">
            <mxPoint x="-48" y="-11" as="offset" />
          </mxGeometry>
        </mxCell>
        <mxCell id="MR5gXrPEWaGG3n3_YcXf-35" value="" style="html=1;verticalAlign=bottom;endArrow=open;dashed=1;endSize=8;curved=0;rounded=0;" parent="IGTpVywdScjhedYOJICQ-63" edge="1">
          <mxGeometry relative="1" as="geometry">
            <mxPoint x="625" y="530" as="sourcePoint" />
            <mxPoint x="310" y="530" as="targetPoint" />
          </mxGeometry>
        </mxCell>
        <mxCell id="7rz7RjUByKyXcCNpzr0i-14" value="&lt;span style=&quot;font-size: 10px;&quot;&gt;Display request of information&lt;/span&gt;" style="edgeLabel;html=1;align=center;verticalAlign=middle;resizable=0;points=[];" vertex="1" connectable="0" parent="MR5gXrPEWaGG3n3_YcXf-35">
          <mxGeometry x="-0.1164" y="-3" relative="1" as="geometry">
            <mxPoint x="-16" y="-7" as="offset" />
          </mxGeometry>
        </mxCell>
        <mxCell id="MR5gXrPEWaGG3n3_YcXf-36" value="" style="html=1;verticalAlign=bottom;endArrow=open;dashed=1;endSize=8;curved=0;rounded=0;" parent="IGTpVywdScjhedYOJICQ-63" edge="1">
          <mxGeometry relative="1" as="geometry">
            <mxPoint x="625" y="700" as="sourcePoint" />
            <mxPoint x="310" y="700" as="targetPoint" />
          </mxGeometry>
        </mxCell>
        <mxCell id="7rz7RjUByKyXcCNpzr0i-16" value="&lt;span style=&quot;font-size: 10px;&quot;&gt;Display the air quality around the selected air cleaner&lt;/span&gt;" style="edgeLabel;html=1;align=center;verticalAlign=middle;resizable=0;points=[];" vertex="1" connectable="0" parent="MR5gXrPEWaGG3n3_YcXf-36">
          <mxGeometry x="0.0635" relative="1" as="geometry">
            <mxPoint x="13" y="-10" as="offset" />
          </mxGeometry>
        </mxCell>
        <mxCell id="IGTpVywdScjhedYOJICQ-177" value="Scenario 3 : Analyze the efficiency of an air cleaner" style="rounded=0;whiteSpace=wrap;html=1;" parent="IGTpVywdScjhedYOJICQ-63" vertex="1">
          <mxGeometry x="350" y="270" width="220" height="60" as="geometry" />
        </mxCell>
        <mxCell id="IGTpVywdScjhedYOJICQ-178" value="&lt;div&gt;:Dataset&lt;/div&gt;" style="shape=umlLifeline;perimeter=lifelinePerimeter;whiteSpace=wrap;html=1;container=0;dropTarget=0;collapsible=0;recursiveResize=0;outlineConnect=0;portConstraint=eastwest;newEdgeStyle={&quot;edgeStyle&quot;:&quot;elbowEdgeStyle&quot;,&quot;elbow&quot;:&quot;vertical&quot;,&quot;curved&quot;:0,&quot;rounded&quot;:0};" parent="IGTpVywdScjhedYOJICQ-63" vertex="1">
          <mxGeometry x="770" y="310" width="110" height="450" as="geometry" />
        </mxCell>
        <mxCell id="7rz7RjUByKyXcCNpzr0i-17" value="" style="html=1;points=[];perimeter=orthogonalPerimeter;outlineConnect=0;targetShapes=umlLifeline;portConstraint=eastwest;newEdgeStyle={&quot;edgeStyle&quot;:&quot;elbowEdgeStyle&quot;,&quot;elbow&quot;:&quot;vertical&quot;,&quot;curved&quot;:0,&quot;rounded&quot;:0};" vertex="1" parent="IGTpVywdScjhedYOJICQ-63">
          <mxGeometry x="820" y="630" width="10" height="30" as="geometry" />
        </mxCell>
        <mxCell id="IGTpVywdScjhedYOJICQ-67" style="edgeStyle=elbowEdgeStyle;rounded=0;orthogonalLoop=1;jettySize=auto;html=1;elbow=vertical;curved=0;" parent="1" edge="1">
          <mxGeometry relative="1" as="geometry">
            <mxPoint x="-650" y="1370.2304347826089" as="sourcePoint" />
            <mxPoint x="-335" y="1370.2304347826089" as="targetPoint" />
          </mxGeometry>
        </mxCell>
        <mxCell id="IGTpVywdScjhedYOJICQ-68" value="&lt;font style=&quot;font-size: 10px;&quot;&gt;Click on Analyze private individual&#39;s sensor&lt;br&gt;&lt;/font&gt;" style="edgeLabel;html=1;align=center;verticalAlign=middle;resizable=0;points=[];" parent="IGTpVywdScjhedYOJICQ-67" vertex="1" connectable="0">
          <mxGeometry x="0.154" y="2" relative="1" as="geometry">
            <mxPoint x="-22" y="-8" as="offset" />
          </mxGeometry>
        </mxCell>
        <mxCell id="IGTpVywdScjhedYOJICQ-69" style="edgeStyle=elbowEdgeStyle;rounded=0;orthogonalLoop=1;jettySize=auto;html=1;elbow=vertical;curved=0;" parent="1" edge="1">
          <mxGeometry relative="1" as="geometry">
            <mxPoint x="-335" y="1450" as="targetPoint" />
            <Array as="points">
              <mxPoint x="-440" y="1450" />
              <mxPoint x="-490" y="1470" />
              <mxPoint x="-440" y="1450" />
              <mxPoint x="-490" y="1450" />
            </Array>
            <mxPoint x="-650" y="1450" as="sourcePoint" />
          </mxGeometry>
        </mxCell>
        <mxCell id="IGTpVywdScjhedYOJICQ-70" value="&lt;font style=&quot;font-size: 10px;&quot;&gt;Enter individual to check (UserID)&lt;br&gt;&lt;/font&gt;" style="edgeLabel;html=1;align=center;verticalAlign=middle;resizable=0;points=[];" parent="IGTpVywdScjhedYOJICQ-69" vertex="1" connectable="0">
          <mxGeometry x="0.0835" relative="1" as="geometry">
            <mxPoint x="-13" y="-10" as="offset" />
          </mxGeometry>
        </mxCell>
        <mxCell id="IGTpVywdScjhedYOJICQ-76" value="&lt;div&gt;:Dataset&lt;/div&gt;" style="shape=umlLifeline;perimeter=lifelinePerimeter;whiteSpace=wrap;html=1;container=0;dropTarget=0;collapsible=0;recursiveResize=0;outlineConnect=0;portConstraint=eastwest;newEdgeStyle={&quot;edgeStyle&quot;:&quot;elbowEdgeStyle&quot;,&quot;elbow&quot;:&quot;vertical&quot;,&quot;curved&quot;:0,&quot;rounded&quot;:0};size=40;" parent="1" vertex="1">
          <mxGeometry x="-190" y="1210" width="100" height="570" as="geometry" />
        </mxCell>
        <mxCell id="IGTpVywdScjhedYOJICQ-73" value="Scenario 2 : Identify a malicious personnal user" style="rounded=0;whiteSpace=wrap;html=1;" parent="1" vertex="1">
          <mxGeometry x="-610" y="1170" width="220" height="60" as="geometry" />
        </mxCell>
        <mxCell id="IGTpVywdScjhedYOJICQ-83" style="edgeStyle=elbowEdgeStyle;rounded=0;orthogonalLoop=1;jettySize=auto;html=1;elbow=vertical;curved=0;" parent="1" edge="1">
          <mxGeometry relative="1" as="geometry">
            <mxPoint x="-324.9999999999998" y="1480" as="sourcePoint" />
            <mxPoint x="-145" y="1480" as="targetPoint" />
          </mxGeometry>
        </mxCell>
        <mxCell id="IGTpVywdScjhedYOJICQ-84" value="&lt;font style=&quot;font-size: 10px;&quot;&gt;Access data from sensor of selected User&lt;br&gt;&lt;/font&gt;" style="edgeLabel;html=1;align=center;verticalAlign=middle;resizable=0;points=[];" parent="IGTpVywdScjhedYOJICQ-83" vertex="1" connectable="0">
          <mxGeometry x="-0.2673" relative="1" as="geometry">
            <mxPoint x="28" y="-20" as="offset" />
          </mxGeometry>
        </mxCell>
        <mxCell id="IGTpVywdScjhedYOJICQ-77" value="" style="html=1;points=[];perimeter=orthogonalPerimeter;outlineConnect=0;targetShapes=umlLifeline;portConstraint=eastwest;newEdgeStyle={&quot;edgeStyle&quot;:&quot;elbowEdgeStyle&quot;,&quot;elbow&quot;:&quot;vertical&quot;,&quot;curved&quot;:0,&quot;rounded&quot;:0};" parent="1" vertex="1">
          <mxGeometry x="-145" y="1480" width="10" height="80" as="geometry" />
        </mxCell>
        <mxCell id="IGTpVywdScjhedYOJICQ-79" style="edgeStyle=elbowEdgeStyle;rounded=0;orthogonalLoop=1;jettySize=auto;html=1;elbow=vertical;curved=0;" parent="1" target="IGTpVywdScjhedYOJICQ-77" edge="1">
          <mxGeometry relative="1" as="geometry">
            <mxPoint x="-325" y="1510" as="sourcePoint" />
            <mxPoint x="-150" y="1510.0428571428572" as="targetPoint" />
            <Array as="points">
              <mxPoint x="-320" y="1510" />
            </Array>
          </mxGeometry>
        </mxCell>
        <mxCell id="IGTpVywdScjhedYOJICQ-80" value="&lt;div&gt;&lt;font style=&quot;font-size: 10px;&quot;&gt;Access data from sensors in the area&lt;br&gt;&lt;/font&gt;&lt;/div&gt;" style="edgeLabel;html=1;align=center;verticalAlign=middle;resizable=0;points=[];" parent="IGTpVywdScjhedYOJICQ-79" vertex="1" connectable="0">
          <mxGeometry x="-0.2673" relative="1" as="geometry">
            <mxPoint x="28" y="-20" as="offset" />
          </mxGeometry>
        </mxCell>
        <mxCell id="IGTpVywdScjhedYOJICQ-64" value="&lt;div&gt;Agency&lt;/div&gt;&lt;div&gt;&lt;br&gt;&lt;/div&gt;" style="shape=umlActor;verticalLabelPosition=bottom;verticalAlign=top;html=1;outlineConnect=0;" parent="1" vertex="1">
          <mxGeometry x="-670" y="1170" width="30" height="66.43" as="geometry" />
        </mxCell>
        <mxCell id="MR5gXrPEWaGG3n3_YcXf-20" value="" style="html=1;verticalAlign=bottom;endArrow=open;dashed=1;endSize=8;curved=0;rounded=0;" parent="1" edge="1">
          <mxGeometry relative="1" as="geometry">
            <mxPoint x="-335" y="1318" as="sourcePoint" />
            <mxPoint x="-650" y="1318" as="targetPoint" />
          </mxGeometry>
        </mxCell>
        <mxCell id="7rz7RjUByKyXcCNpzr0i-9" value="&lt;span style=&quot;font-size: 10px;&quot;&gt;Display Agency Menu&lt;/span&gt;" style="edgeLabel;html=1;align=center;verticalAlign=middle;resizable=0;points=[];" vertex="1" connectable="0" parent="MR5gXrPEWaGG3n3_YcXf-20">
          <mxGeometry x="-0.1693" y="-1" relative="1" as="geometry">
            <mxPoint x="-23" y="-9" as="offset" />
          </mxGeometry>
        </mxCell>
        <mxCell id="MR5gXrPEWaGG3n3_YcXf-21" value="" style="html=1;verticalAlign=bottom;endArrow=open;dashed=1;endSize=8;curved=0;rounded=0;" parent="1" edge="1">
          <mxGeometry relative="1" as="geometry">
            <mxPoint x="-335" y="1406" as="sourcePoint" />
            <mxPoint x="-650" y="1406" as="targetPoint" />
          </mxGeometry>
        </mxCell>
        <mxCell id="7rz7RjUByKyXcCNpzr0i-10" value="&lt;span style=&quot;font-size: 10px;&quot;&gt;Display request of information&lt;/span&gt;" style="edgeLabel;html=1;align=center;verticalAlign=middle;resizable=0;points=[];" vertex="1" connectable="0" parent="MR5gXrPEWaGG3n3_YcXf-21">
          <mxGeometry x="-0.3598" y="-3" relative="1" as="geometry">
            <mxPoint x="-54" y="-7" as="offset" />
          </mxGeometry>
        </mxCell>
        <mxCell id="MR5gXrPEWaGG3n3_YcXf-22" value="" style="html=1;verticalAlign=bottom;endArrow=open;dashed=1;endSize=8;curved=0;rounded=0;" parent="1" edge="1">
          <mxGeometry relative="1" as="geometry">
            <mxPoint x="-335" y="1590" as="sourcePoint" />
            <mxPoint x="-650" y="1590" as="targetPoint" />
          </mxGeometry>
        </mxCell>
        <mxCell id="7rz7RjUByKyXcCNpzr0i-11" value="&lt;span style=&quot;font-size: 10px;&quot;&gt;Display data of the sensor and the area&lt;/span&gt;" style="edgeLabel;html=1;align=center;verticalAlign=middle;resizable=0;points=[];" vertex="1" connectable="0" parent="MR5gXrPEWaGG3n3_YcXf-22">
          <mxGeometry x="-0.1164" y="2" relative="1" as="geometry">
            <mxPoint x="-18" y="-12" as="offset" />
          </mxGeometry>
        </mxCell>
        <mxCell id="7rz7RjUByKyXcCNpzr0i-3" value="" style="html=1;verticalAlign=bottom;endArrow=open;dashed=1;endSize=8;curved=0;rounded=0;" edge="1" parent="1">
          <mxGeometry relative="1" as="geometry">
            <mxPoint x="-295" y="382" as="sourcePoint" />
            <mxPoint x="-610" y="382" as="targetPoint" />
          </mxGeometry>
        </mxCell>
        <mxCell id="7rz7RjUByKyXcCNpzr0i-4" value="&lt;span style=&quot;font-size: 10px;&quot;&gt;Display air quality of sensors around&lt;/span&gt;" style="edgeLabel;html=1;align=center;verticalAlign=middle;resizable=0;points=[];" vertex="1" connectable="0" parent="7rz7RjUByKyXcCNpzr0i-3">
          <mxGeometry x="-0.3841" y="-1" relative="1" as="geometry">
            <mxPoint x="-58" y="-10" as="offset" />
          </mxGeometry>
        </mxCell>
        <mxCell id="IGTpVywdScjhedYOJICQ-55" value="" style="rounded=0;whiteSpace=wrap;html=1;fillColor=none;" parent="1" vertex="1">
          <mxGeometry x="-730" y="200" width="660" height="200" as="geometry" />
        </mxCell>
        <mxCell id="MR5gXrPEWaGG3n3_YcXf-3" style="edgeStyle=orthogonalEdgeStyle;rounded=0;orthogonalLoop=1;jettySize=auto;html=1;exitX=0.25;exitY=0;exitDx=0;exitDy=0;" parent="1" source="IGTpVywdScjhedYOJICQ-55" target="IGTpVywdScjhedYOJICQ-55" edge="1">
          <mxGeometry relative="1" as="geometry" />
        </mxCell>
        <mxCell id="7rz7RjUByKyXcCNpzr0i-7" value="" style="html=1;verticalAlign=bottom;endArrow=open;dashed=1;endSize=8;curved=0;rounded=0;" edge="1" parent="1">
          <mxGeometry relative="1" as="geometry">
            <mxPoint x="-295" y="620" as="sourcePoint" />
            <mxPoint x="-610" y="620" as="targetPoint" />
          </mxGeometry>
        </mxCell>
        <mxCell id="7rz7RjUByKyXcCNpzr0i-8" value="&lt;span style=&quot;font-size: 10px;&quot;&gt;Display area and data of similar sensors&lt;/span&gt;" style="edgeLabel;html=1;align=center;verticalAlign=middle;resizable=0;points=[];" vertex="1" connectable="0" parent="7rz7RjUByKyXcCNpzr0i-7">
          <mxGeometry x="-0.1238" y="-1" relative="1" as="geometry">
            <mxPoint x="-27" y="-9" as="offset" />
          </mxGeometry>
        </mxCell>
        <mxCell id="MR5gXrPEWaGG3n3_YcXf-26" value="" style="html=1;verticalAlign=bottom;endArrow=open;dashed=1;endSize=8;curved=0;rounded=0;" parent="1" edge="1">
          <mxGeometry relative="1" as="geometry">
            <mxPoint x="-650" y="1654.58" as="sourcePoint" />
            <mxPoint x="-335" y="1654.58" as="targetPoint" />
          </mxGeometry>
        </mxCell>
        <mxCell id="7rz7RjUByKyXcCNpzr0i-12" value="&lt;span style=&quot;font-size: 10px;&quot;&gt;Enter reliability&lt;/span&gt;" style="edgeLabel;html=1;align=center;verticalAlign=middle;resizable=0;points=[];" vertex="1" connectable="0" parent="MR5gXrPEWaGG3n3_YcXf-26">
          <mxGeometry x="0.2698" relative="1" as="geometry">
            <mxPoint x="-40" y="-10" as="offset" />
          </mxGeometry>
        </mxCell>
      </root>
    </mxGraphModel>
  </diagram>
</mxfile>
